 http://img195.imageshack.us/img195/7894/do245brightonrock.jpg

Country.......: United Kingdom
Genre.........: Crime, Drama, Thriller
Date release..: 13.09.2010 [World]
Director......: Rowan Joffe
Writers.......: Graham Greene, Rowan Joffe
Duration......: 106 min.
More..........: http://www.imdb.com/title/tt1233192
Trailer.......: http://www.imdb.com/video/imdb/vi4823321
Trailer.......:

Pilot :
Charts the headlong fall of Pinkie, a razor-wielding disadvantaged teenager with a religious death wish. 

Cats :
John Hurt   	 ...  	Phil Corkery
Andy Serkis 	... 	Mr. Colleoni
Helen Mirren 	... 	Ida
Sam Riley 	... 	Pinkie
Andrea Riseborough 	... 	Rose
Sean Harris 	... 	Hale
Philip Davis 	... 	Spicer
Steven Robertson 	... 	Crab
Maurice Roeves 	... 	Inspector
Nonso Anozie 	... 	Dallow
Steve Evets 	... 	Mr Wilson
Adrian Schiller 	... 	Registrar
Mark Cooper Harris 	... 	Detainee
Kenneth Collard 	... 	Clergyman
John Warman 	... 	Policeman 

Data Technical :
!!! SAMPLE !!!
Audio.....: English
Subtitles.: Spanish .srt, English .srt, Italian .srt, Turkich .srt, Polish .txt
Format                           : AVI
Format/Info                      : Audio Video Interleave
File size                        : 698 MiB
Duration                         : 1h 46mn
Overall bit rate                 : 916 Kbps
Writing application              : VirtualDubMod 1.5.10.2 (build 2540/release)
Writing library                  : VirtualDubMod build 2540/release
Video
ID                               : 0
Format                           : MPEG-4 Visual
Format profile                   : Simple@L5
Format settings, BVOP            : No
Format settings, QPel            : No
Format settings, GMC             : No warppoints
Format settings, Matrix          : Default (H.263)
Codec ID                         : XVID
Codec ID/Hint                    : XviD
Duration                         : 1h 46mn
Bit rate                         : 777 Kbps
Width                            : 592 pixels
Height                           : 256 pixels
Display aspect ratio             : 2.35:1
Frame rate                       : 25.000 fps
Color space                      : YUV
Chroma subsampling               : 4:2:0
Bit depth                        : 8 bits
Scan type                        : Progressive
Bits/(Pixel*Frame)               : 0.205
Stream size                      : 591 MiB (85%)
Writing library                  : XviD 64
Audio
ID                               : 1
Format                           : MPEG Audio
Format version                   : Version 1
Format profile                   : Layer 3
Mode                             : Joint stereo
Mode extension                   : MS Stereo
Codec ID                         : 55
Codec ID/Hint                    : MP3
Duration                         : 1h 46mn
Bit rate mode                    : Variable
Bit rate                         : 128 Kbps
Channel(s)                       : 2 channels
Sampling rate                    : 48.0 KHz
Stream size                      : 96.4 MiB (14%)
Alignment                        : Aligned on interleaves
Interleave, duration             : 24 ms (0.60 video frame)
Interleave, preload duration     : 359 ms
Writing library                  : LAME3.90.
Encoding settings                : -m j -V 4 -q 2 -lowpass 17.6 --abr 128

Screen : 
http://img24.imageshack.us/img24/8492/brightonrock2010s1.jpg 
http://img705.imageshack.us/img705/6366/brightonrock2010s2.jpg 
http://img836.imageshack.us/img836/5381/brightonrock2010s3.jpg 
http://img109.imageshack.us/img109/7999/brightonrock2010s4.jpg 
http://img695.imageshack.us/img695/9287/brightonrock2010s5.jpg